<svg width="104" height="104" viewBox="0 0 104 104" fill="none" xmlns="http://www.w3.org/2000/svg">
<path d="M0 5.75V97.75C0 99.275 0.605802 100.738 1.68414 101.816C2.76247 102.894 4.22501 103.5 5.75 103.5H97.75C99.275 103.5 100.738 102.894 101.816 101.816C102.894 100.738 103.5 99.275 103.5 97.75V5.75C103.5 4.22501 102.894 2.76247 101.816 1.68414C100.738 0.605802 99.275 0 97.75 0H5.75C4.22501 0 2.76247 0.605802 1.68414 1.68414C0.605802 2.76247 0 4.22501 0 5.75V5.75ZM46 23H57.5V34.5H46V23ZM46 46H57.5V80.5H46V46Z" fill="black"/>
</svg>
