<svg width="120" height="158" viewBox="0 0 120 158" fill="none" xmlns="http://www.w3.org/2000/svg">
<path d="M0.75 19.75C0.75 14.512 2.8308 9.48848 6.53464 5.78464C10.2385 2.0808 15.262 0 20.5 0L99.5 0C104.738 0 109.762 2.0808 113.465 5.78464C117.169 9.48848 119.25 14.512 119.25 19.75V138.25C119.25 143.488 117.169 148.512 113.465 152.215C109.762 155.919 104.738 158 99.5 158H20.5C15.262 158 10.2385 155.919 6.53464 152.215C2.8308 148.512 0.75 143.488 0.75 138.25V19.75ZM45.1875 19.75C43.878 19.75 42.6221 20.2702 41.6962 21.1962C40.7702 22.1221 40.25 23.378 40.25 24.6875C40.25 25.997 40.7702 27.2529 41.6962 28.1788C42.6221 29.1048 43.878 29.625 45.1875 29.625H74.8125C76.122 29.625 77.3779 29.1048 78.3038 28.1788C79.2298 27.2529 79.75 25.997 79.75 24.6875C79.75 23.378 79.2298 22.1221 78.3038 21.1962C77.3779 20.2702 76.122 19.75 74.8125 19.75H45.1875ZM60 108.625C67.857 108.625 75.3923 105.504 80.948 99.948C86.5038 94.3923 89.625 86.857 89.625 79C89.625 71.143 86.5038 63.6077 80.948 58.052C75.3923 52.4962 67.857 49.375 60 49.375C52.143 49.375 44.6077 52.4962 39.052 58.052C33.4962 63.6077 30.375 71.143 30.375 79C30.375 86.857 33.4962 94.3923 39.052 99.948C44.6077 105.504 52.143 108.625 60 108.625V108.625ZM109.375 135.831C100.942 126.647 85.9021 118.5 60 118.5C34.0979 118.5 19.0582 126.657 10.625 135.831V138.25C10.625 140.869 11.6654 143.381 13.5173 145.233C15.3692 147.085 17.881 148.125 20.5 148.125H99.5C102.119 148.125 104.631 147.085 106.483 145.233C108.335 143.381 109.375 140.869 109.375 138.25V135.831V135.831Z" fill="black"/>
</svg>
