<svg width="132" height="124" viewBox="0 0 132 124" fill="none" xmlns="http://www.w3.org/2000/svg">
<g clip-path="url(#clip0)">
<path d="M128.066 69.7509H70.4885L108.834 108.024C110.3 109.487 112.712 109.605 114.218 108.188C123.609 99.3583 130.068 87.4548 131.963 74.0739C132.288 71.7828 130.384 69.7509 128.066 69.7509ZM124.225 54.0571C122.226 25.1254 99.0626 2.00618 70.076 0.0105581C67.8631 -0.14202 65.9996 1.7204 65.9996 3.934V58.1259H120.297C122.514 58.1259 124.378 56.2659 124.225 54.0571ZM54.3525 69.7509V12.2822C54.3525 9.96931 52.3167 8.06814 50.0237 8.39267C21.1074 12.4711 -0.995299 37.6852 0.0335243 67.903C1.09147 98.9369 27.8627 124.386 58.9701 123.996C71.1995 123.843 82.4996 119.91 91.7905 113.333C93.7074 111.976 93.8336 109.16 92.1715 107.501L54.3525 69.7509Z" fill="black"/>
</g>
<defs>
<clipPath id="clip0">
<rect width="132" height="124" fill="white"/>
</clipPath>
</defs>
</svg>
