<svg width="38" height="34" viewBox="0 0 38 34" fill="none" xmlns="http://www.w3.org/2000/svg">
<path fill-rule="evenodd" clip-rule="evenodd" d="M0.601774 0.609561C-0.200591 1.41193 -0.200591 21.3295 0.601774 22.1318C1.41452 22.9446 36.4146 22.9446 37.2274 22.1318C38.0297 21.3295 38.0297 1.41193 37.2274 0.609561C36.4146 -0.203187 1.41452 -0.203187 0.601774 0.609561ZM33.0739 4.76298C33.9131 5.60216 34.0179 6.33609 34.0179 11.3707C34.0179 19.534 35.2413 18.9224 18.9146 18.9224C2.58786 18.9224 3.81123 19.534 3.81123 11.3707C3.81123 6.63579 3.94669 5.55874 4.6372 4.80215C5.41219 3.95353 6.28629 3.89548 18.7966 3.85819C31.5287 3.82091 32.1725 3.8615 33.0739 4.76298ZM16.7907 6.13313C14.6899 7.05585 13.4868 8.97351 13.4868 11.3995C13.4868 13.3823 13.7067 13.9326 15.0297 15.2555C16.3579 16.5837 16.8992 16.7984 18.9146 16.7984C20.9299 16.7984 21.4713 16.5837 22.7994 15.2555C24.1276 13.9274 24.3423 13.386 24.3423 11.3707C24.3423 9.38224 24.1219 8.80878 22.8825 7.56889C21.324 6.01042 18.5554 5.35814 16.7907 6.13313ZM8.07793 10.1681C7.344 11.0521 7.60028 12.3095 8.64902 12.9698C10.2844 13.9996 12.1261 11.6789 10.872 10.1681C10.1433 9.28973 8.80666 9.28973 8.07793 10.1681ZM26.9571 10.1681C26.2232 11.0521 26.4795 12.3095 27.5282 12.9698C29.1636 13.9996 31.0053 11.6789 29.7512 10.1681C29.0225 9.28973 27.6858 9.28973 26.9571 10.1681ZM4.99118 26.7331C5.25077 26.8341 11.715 28.5437 19.3559 30.5321C28.8814 33.01 33.468 34.0082 33.9462 33.7066C34.5078 33.3522 36.2938 28.2652 36.3613 26.828C36.3702 26.6336 35.5424 26.474 34.5215 26.474C33.1683 26.474 32.5944 26.6977 32.4033 27.3005C32.2593 27.755 31.5471 28.3898 30.8212 28.7107C29.6842 29.2143 28.7822 29.1011 24.3258 27.8952C19.6008 26.6175 18.5139 26.4976 11.8349 26.5222C7.81126 26.5368 4.73159 26.6317 4.99118 26.7331Z" fill="black"/>
</svg>
