<svg width="31" height="38" viewBox="0 0 31 38" fill="none" xmlns="http://www.w3.org/2000/svg">
<path fill-rule="evenodd" clip-rule="evenodd" d="M13.2154 0.943958C12.6962 1.46314 12.2715 2.37783 12.2715 2.97724C12.2715 3.79282 11.8014 4.27377 10.4001 4.89206C8.04347 5.93136 5.05679 9.28619 4.33088 11.7084C4.02551 12.7274 3.77583 16.0317 3.77583 19.0519V24.5429H15.1033H26.4308V19.0519C26.4308 16.0317 26.1812 12.7274 25.8758 11.7084C25.1499 9.28619 22.1632 5.93136 19.8066 4.89206C18.4053 4.27377 17.9352 3.79282 17.9352 2.97724C17.9352 1.63777 16.3772 0 15.1033 0C14.5842 0 13.7346 0.424781 13.2154 0.943958ZM0 30.2067V32.0946H5.80487H11.6097L11.42 33.7196C11.2723 34.9873 11.4955 35.6094 12.4376 36.5515C14.9584 39.0723 19.1911 37.1849 18.7867 33.7196L18.5969 32.0946H24.4018H30.2067V30.2067V28.3188H15.1033H0V30.2067Z" fill="black"/>
</svg>
