<svg width="220" height="220" viewBox="0 0 220 220" fill="none" xmlns="http://www.w3.org/2000/svg">
<path fill-rule="evenodd" clip-rule="evenodd" d="M53.9358 15.0578C29.9063 23.2221 9.67175 30.4809 8.965 31.1883C7.7935 32.3609 21.582 76.8628 23.1192 76.8628C23.485 76.8628 32.538 73.8845 43.2355 70.24L62.6863 63.6199L68.4667 78.7429C71.6485 87.0613 74.25 96.6708 74.25 100.095C74.25 112.061 68.1505 125.106 58.4073 133.98C49.478 142.111 46.9838 142.926 31.042 142.926C16.0847 142.926 12.507 143.923 6.75125 149.684C0.363 156.075 0 158.148 0 188.221V220H27.5H55V193.28V166.56L71.599 151.302C86.757 137.369 88.671 134.299 93.654 115.917C99.1237 95.7569 98.89 90.626 92.51 90.626C90.6345 90.626 86.493 83.3811 83.3085 74.5258L77.5225 58.4284L95.8238 52.0753C105.889 48.5795 114.562 45.3754 115.096 44.9515C116.71 43.6715 101.442 -0.22758 99.462 0.000888679C98.4527 0.116499 77.9653 6.8935 53.9358 15.0578ZM121 25.5922C121 26.1592 122.848 31.8654 125.106 38.2736C129.861 51.7615 129.247 53.5562 118.979 56.1354C110.734 58.2054 104.5 62.4665 104.5 66.0312C104.5 67.2726 113.039 71.041 123.475 74.4047L142.45 80.5211L136.747 96.3873C132.987 106.847 129.217 112.732 125.68 113.66C119.859 115.182 119.925 115.986 128.249 145.004C131.654 156.871 135.325 162.049 148.698 173.83L165 188.193V204.095V220H192.5H220V199.231C220 180.849 219.224 177.684 213.249 171.705C207.545 165.996 203.877 164.947 189.582 164.947C175.005 164.947 171.254 163.827 162.437 156.838C152.523 148.976 145.75 134.643 145.75 121.519C145.75 118.422 148.352 109.082 151.533 100.764L157.314 85.641L176.814 92.2803C187.539 95.9303 197.15 97.9811 198.173 96.836C200.577 94.1411 211.75 60.3525 211.75 55.7748C211.75 53.6773 194.441 46.7159 168.602 38.4167C126.714 24.9673 121 23.4286 121 25.5922ZM17.7512 94.6311C8.81925 103.569 8.81925 116.22 17.7512 125.158C31.3912 138.814 55 129.138 55 109.894C55 98.5784 44.3053 87.8734 33 87.8734C27.643 87.8734 22.0055 90.37 17.7512 94.6311ZM171.751 116.652C167.494 120.911 165 126.553 165 131.916C165 137.278 167.494 142.921 171.751 147.179C185.391 160.835 209 151.159 209 131.916C209 120.599 198.305 109.894 187 109.894C181.643 109.894 176.006 112.391 171.751 116.652Z" fill="black"/>
</svg>
