<svg width="112" height="90" viewBox="0 0 112 90" fill="none" xmlns="http://www.w3.org/2000/svg">
<g clip-path="url(#clip0)">
<path d="M42 59.0625H41.9965C41.9965 56.2184 42.231 57.5279 27.1127 27.1564C24.024 20.9531 15.1795 20.9408 12.0855 27.1564C-3.16055 57.7881 -2.79655 56.308 -2.79655 59.0625H-2.80005C-2.80005 66.8285 7.2292 73.125 19.6 73.125C31.9707 73.125 42 66.8285 42 59.0625ZM19.6 30.9375L32.2 56.25H6.99995L19.6 30.9375ZM109.196 59.0625C109.196 56.2184 109.431 57.5279 94.3127 27.1564C91.224 20.9531 82.3795 20.9408 79.2855 27.1564C64.0395 57.7881 64.4035 56.308 64.4035 59.0625H64.4C64.4 66.8285 74.4292 73.125 86.8 73.125C99.1707 73.125 109.2 66.8285 109.2 59.0625H109.196ZM74.2 56.25L86.8 30.9375L99.4 56.25H74.2ZM89.6 78.75H58.8V26.9385C62.9142 25.1297 66.003 21.4049 66.9182 16.875H89.6C91.147 16.875 92.4 15.6164 92.4 14.0625V8.4375C92.4 6.88359 91.147 5.625 89.6 5.625H64.337C61.782 2.22891 57.7657 0 53.2 0C48.6342 0 44.618 2.22891 42.063 5.625H16.8C15.253 5.625 14 6.88359 14 8.4375V14.0625C14 15.6164 15.253 16.875 16.8 16.875H39.4817C40.397 21.4031 43.484 25.1297 47.6 26.9385V78.75H16.8C15.253 78.75 14 80.0086 14 81.5625V87.1875C14 88.7414 15.253 90 16.8 90H89.6C91.147 90 92.4 88.7414 92.4 87.1875V81.5625C92.4 80.0086 91.147 78.75 89.6 78.75Z" fill="black"/>
</g>
<defs>
<clipPath id="clip0">
<rect width="112" height="90" fill="white"/>
</clipPath>
</defs>
</svg>
