<svg width="88" height="97" viewBox="0 0 88 97" fill="none" xmlns="http://www.w3.org/2000/svg">
<path d="M66.2224 61.7778V59.5311C66.2224 57.7695 66.9222 56.08 68.1679 54.8344C69.4135 53.5887 71.103 52.8889 72.8646 52.8889V52.8889C74.6247 52.8889 76.3129 53.5875 77.5583 54.8312C78.8037 56.0749 79.5045 57.7621 79.5069 59.5222L79.5335 77.7445C79.5365 79.7322 79.1475 81.701 78.3888 83.5383C77.6302 85.3756 76.5167 87.0453 75.1122 88.4518C73.7077 89.8584 72.0396 90.9743 70.2035 91.7357C68.3673 92.497 66.3991 92.8889 64.4113 92.8889H47.6602C42.8242 92.8889 38.0555 91.7558 33.7364 89.5804C29.4173 87.4051 25.668 84.2479 22.7891 80.3622L13.3113 67.5689C12.5286 66.5125 12.0766 65.2478 12.0125 63.9346C11.9485 62.6214 12.2752 61.3187 12.9513 60.1911V60.1911C13.4712 59.3245 14.1818 58.5877 15.0291 58.0369C15.8764 57.486 16.8381 57.1356 17.8412 57.0122C18.8443 56.8888 19.8622 56.9957 20.8178 57.3247C21.7734 57.6538 22.6413 58.1963 23.3558 58.9111L26.2224 61.7778V30.6667C26.2224 28.8986 26.9248 27.2029 28.175 25.9526C29.4253 24.7024 31.121 24 32.8891 24C34.6572 24 36.3529 24.7024 37.6031 25.9526C38.8534 27.2029 39.5558 28.8986 39.5558 30.6667V57.0556V41.8356C39.5558 40.0521 40.2642 38.3417 41.5253 37.0807C42.7864 35.8196 44.4968 35.1111 46.2802 35.1111V35.1111C47.1635 35.1108 48.0381 35.2845 48.8542 35.6223C49.6703 35.9601 50.4119 36.4554 51.0365 37.0799C51.6612 37.7043 52.1567 38.4457 52.4948 39.2617C52.8329 40.0777 53.0069 40.9523 53.0069 41.8356V59.5556V57.1089C53.0069 55.3565 53.7029 53.6758 54.9418 52.4365C56.1807 51.1971 57.8611 50.5006 59.6135 50.5V50.5C61.3663 50.5 63.0473 51.1963 64.2867 52.4357C65.5261 53.6751 66.2224 55.3561 66.2224 57.1089V61.7778Z" stroke="black" stroke-width="7" stroke-linecap="round" stroke-linejoin="round"/>
<path d="M61.7781 4V21.7778" stroke="black" stroke-width="7" stroke-linecap="round"/>
<path d="M26.2222 39.5556H4V30.6667C8.44444 30.6667 12.8889 27.3333 12.8311 21.7778C12.7733 16.2222 8.44444 12.8889 4 12.8889V4H84V12.8889C79.5556 12.8889 75.2267 16.2222 75.1689 21.7778C75.1111 27.3333 79.5556 30.6667 84 30.6667V39.5556H52.8889" stroke="black" stroke-width="7" stroke-linecap="round" stroke-linejoin="round"/>
</svg>
